<mxfile host="app.diagrams.net" agent="Mozilla/5.0 (Windows NT 10.0; Win64; x64; rv:135.0) Gecko/20100101 Firefox/135.0" version="26.0.6">
  <diagram name="Page-1" id="6CVuObcRjR5ANR-r7CHb">
    <mxGraphModel dx="1623" dy="1080" grid="1" gridSize="10" guides="1" tooltips="1" connect="1" arrows="1" fold="1" page="1" pageScale="1" pageWidth="6600" pageHeight="3300" math="0" shadow="0">
      <root>
        <mxCell id="0" />
        <mxCell id="1" parent="0" />
        <mxCell id="PtrrE2Xn4478rQurks_1-1" value="&lt;span data-darkreader-inline-color=&quot;&quot; style=&quot;color: rgb(0, 0, 0); --darkreader-inline-color: #dddad5;&quot;&gt;Thing&lt;/span&gt;" style="rounded=0;whiteSpace=wrap;html=1;" vertex="1" parent="1">
          <mxGeometry x="3548" y="470" width="120" height="60" as="geometry" />
        </mxCell>
        <mxCell id="PtrrE2Xn4478rQurks_1-2" value="" style="endArrow=none;html=1;rounded=0;entryX=0.5;entryY=1;entryDx=0;entryDy=0;exitX=0.5;exitY=0;exitDx=0;exitDy=0;" edge="1" parent="1" source="PtrrE2Xn4478rQurks_1-3" target="PtrrE2Xn4478rQurks_1-1">
          <mxGeometry width="50" height="50" relative="1" as="geometry">
            <mxPoint x="3608" y="600" as="sourcePoint" />
            <mxPoint x="3638" y="1000" as="targetPoint" />
          </mxGeometry>
        </mxCell>
        <mxCell id="PtrrE2Xn4478rQurks_1-3" value="Dinosauria" style="rounded=0;whiteSpace=wrap;html=1;" vertex="1" parent="1">
          <mxGeometry x="3548" y="590" width="120" height="60" as="geometry" />
        </mxCell>
        <mxCell id="PtrrE2Xn4478rQurks_1-4" value="" style="endArrow=none;html=1;rounded=0;entryX=0.25;entryY=1;entryDx=0;entryDy=0;exitX=0.5;exitY=0;exitDx=0;exitDy=0;" edge="1" parent="1" source="PtrrE2Xn4478rQurks_1-6" target="PtrrE2Xn4478rQurks_1-3">
          <mxGeometry width="50" height="50" relative="1" as="geometry">
            <mxPoint x="3548" y="700" as="sourcePoint" />
            <mxPoint x="3638" y="1000" as="targetPoint" />
          </mxGeometry>
        </mxCell>
        <mxCell id="PtrrE2Xn4478rQurks_1-5" value="" style="endArrow=none;html=1;rounded=0;entryX=0.75;entryY=1;entryDx=0;entryDy=0;exitX=0.5;exitY=0;exitDx=0;exitDy=0;" edge="1" parent="1" source="PtrrE2Xn4478rQurks_1-12" target="PtrrE2Xn4478rQurks_1-3">
          <mxGeometry width="50" height="50" relative="1" as="geometry">
            <mxPoint x="3968" y="780" as="sourcePoint" />
            <mxPoint x="3638" y="1000" as="targetPoint" />
          </mxGeometry>
        </mxCell>
        <mxCell id="PtrrE2Xn4478rQurks_1-6" value="Ornithischia" style="rounded=0;whiteSpace=wrap;html=1;" vertex="1" parent="1">
          <mxGeometry x="2558" y="699" width="120" height="60" as="geometry" />
        </mxCell>
        <mxCell id="PtrrE2Xn4478rQurks_1-8" value="" style="endArrow=none;html=1;rounded=0;entryX=0.25;entryY=1;entryDx=0;entryDy=0;exitX=0.5;exitY=0;exitDx=0;exitDy=0;" edge="1" parent="1" source="PtrrE2Xn4478rQurks_1-31" target="PtrrE2Xn4478rQurks_1-6">
          <mxGeometry width="50" height="50" relative="1" as="geometry">
            <mxPoint x="2490" y="789" as="sourcePoint" />
            <mxPoint x="2758" y="989" as="targetPoint" />
          </mxGeometry>
        </mxCell>
        <mxCell id="PtrrE2Xn4478rQurks_1-9" value="" style="endArrow=none;html=1;rounded=0;entryX=0.75;entryY=1;entryDx=0;entryDy=0;exitX=0.5;exitY=0;exitDx=0;exitDy=0;" edge="1" parent="1" source="PtrrE2Xn4478rQurks_1-11" target="PtrrE2Xn4478rQurks_1-6">
          <mxGeometry width="50" height="50" relative="1" as="geometry">
            <mxPoint x="3199" y="809" as="sourcePoint" />
            <mxPoint x="3249" y="989" as="targetPoint" />
          </mxGeometry>
        </mxCell>
        <mxCell id="PtrrE2Xn4478rQurks_1-10" value="Genasauria" style="rounded=0;whiteSpace=wrap;html=1;" vertex="1" parent="1">
          <mxGeometry x="1855" y="949" width="120" height="60" as="geometry" />
        </mxCell>
        <mxCell id="PtrrE2Xn4478rQurks_1-11" value="Heterodontosauridae" style="rounded=0;whiteSpace=wrap;html=1;" vertex="1" parent="1">
          <mxGeometry x="3035" y="819" width="120" height="60" as="geometry" />
        </mxCell>
        <mxCell id="PtrrE2Xn4478rQurks_1-12" value="Saurischia" style="rounded=0;whiteSpace=wrap;html=1;" vertex="1" parent="1">
          <mxGeometry x="4459" y="699" width="120" height="60" as="geometry" />
        </mxCell>
        <mxCell id="PtrrE2Xn4478rQurks_1-13" value="" style="endArrow=none;html=1;rounded=0;entryX=0.25;entryY=1;entryDx=0;entryDy=0;exitX=0.5;exitY=0;exitDx=0;exitDy=0;" edge="1" parent="1" source="PtrrE2Xn4478rQurks_1-14" target="PtrrE2Xn4478rQurks_1-12">
          <mxGeometry width="50" height="50" relative="1" as="geometry">
            <mxPoint x="4256" y="889" as="sourcePoint" />
            <mxPoint x="4016" y="989" as="targetPoint" />
          </mxGeometry>
        </mxCell>
        <mxCell id="PtrrE2Xn4478rQurks_1-14" value="Herrasauria" style="rounded=0;whiteSpace=wrap;html=1;" vertex="1" parent="1">
          <mxGeometry x="3974" y="819" width="120" height="60" as="geometry" />
        </mxCell>
        <mxCell id="PtrrE2Xn4478rQurks_1-16" value="" style="endArrow=none;html=1;rounded=0;entryX=0.75;entryY=1;entryDx=0;entryDy=0;exitX=0.5;exitY=0;exitDx=0;exitDy=0;" edge="1" parent="1" source="PtrrE2Xn4478rQurks_1-17" target="PtrrE2Xn4478rQurks_1-12">
          <mxGeometry width="50" height="50" relative="1" as="geometry">
            <mxPoint x="4616" y="969" as="sourcePoint" />
            <mxPoint x="4016" y="989" as="targetPoint" />
          </mxGeometry>
        </mxCell>
        <mxCell id="PtrrE2Xn4478rQurks_1-17" value="Eusaurischia" style="rounded=0;whiteSpace=wrap;html=1;" vertex="1" parent="1">
          <mxGeometry x="4991" y="819" width="120" height="60" as="geometry" />
        </mxCell>
        <mxCell id="PtrrE2Xn4478rQurks_1-19" value="Pisanosaurus" style="ellipse;whiteSpace=wrap;html=1;" vertex="1" parent="1">
          <mxGeometry x="2420" y="689" width="120" height="80" as="geometry" />
        </mxCell>
        <mxCell id="PtrrE2Xn4478rQurks_1-20" value="Eocursor" style="ellipse;whiteSpace=wrap;html=1;" vertex="1" parent="1">
          <mxGeometry x="2221" y="809" width="120" height="80" as="geometry" />
        </mxCell>
        <mxCell id="PtrrE2Xn4478rQurks_1-21" value="Lesothosaurus" style="ellipse;whiteSpace=wrap;html=1;" vertex="1" parent="1">
          <mxGeometry x="1717" y="939" width="120" height="80" as="geometry" />
        </mxCell>
        <mxCell id="PtrrE2Xn4478rQurks_1-22" value="Heterodontosaurus" style="ellipse;whiteSpace=wrap;html=1;" vertex="1" parent="1">
          <mxGeometry x="3294" y="929" width="120" height="80" as="geometry" />
        </mxCell>
        <mxCell id="PtrrE2Xn4478rQurks_1-23" value="" style="endArrow=none;html=1;rounded=0;exitX=0.25;exitY=1;exitDx=0;exitDy=0;entryX=0.5;entryY=0;entryDx=0;entryDy=0;" edge="1" parent="1" source="PtrrE2Xn4478rQurks_1-10" target="PtrrE2Xn4478rQurks_1-25">
          <mxGeometry width="50" height="50" relative="1" as="geometry">
            <mxPoint x="2470" y="1068" as="sourcePoint" />
            <mxPoint x="2071" y="1069" as="targetPoint" />
          </mxGeometry>
        </mxCell>
        <mxCell id="PtrrE2Xn4478rQurks_1-25" value="Thyreophora" style="rounded=0;whiteSpace=wrap;html=1;" vertex="1" parent="1">
          <mxGeometry x="873" y="1117" width="120" height="60" as="geometry" />
        </mxCell>
        <mxCell id="PtrrE2Xn4478rQurks_1-26" value="" style="endArrow=none;html=1;rounded=0;exitX=0.75;exitY=1;exitDx=0;exitDy=0;entryX=0.5;entryY=0;entryDx=0;entryDy=0;" edge="1" parent="1" source="PtrrE2Xn4478rQurks_1-11" target="PtrrE2Xn4478rQurks_1-28">
          <mxGeometry width="50" height="50" relative="1" as="geometry">
            <mxPoint x="3187" y="849" as="sourcePoint" />
            <mxPoint x="3237" y="799" as="targetPoint" />
          </mxGeometry>
        </mxCell>
        <mxCell id="PtrrE2Xn4478rQurks_1-28" value="Heterodontosaurinae" style="rounded=0;whiteSpace=wrap;html=1;" vertex="1" parent="1">
          <mxGeometry x="3155" y="939" width="120" height="60" as="geometry" />
        </mxCell>
        <mxCell id="PtrrE2Xn4478rQurks_1-29" value="Neornithischia" style="rounded=0;whiteSpace=wrap;html=1;" vertex="1" parent="1">
          <mxGeometry x="2652" y="1117" width="120" height="60" as="geometry" />
        </mxCell>
        <mxCell id="PtrrE2Xn4478rQurks_1-30" value="" style="endArrow=none;html=1;rounded=0;entryX=0.75;entryY=1;entryDx=0;entryDy=0;exitX=0.5;exitY=0;exitDx=0;exitDy=0;" edge="1" parent="1" source="PtrrE2Xn4478rQurks_1-29" target="PtrrE2Xn4478rQurks_1-10">
          <mxGeometry width="50" height="50" relative="1" as="geometry">
            <mxPoint x="2511" y="979" as="sourcePoint" />
            <mxPoint x="2561" y="929" as="targetPoint" />
          </mxGeometry>
        </mxCell>
        <mxCell id="PtrrE2Xn4478rQurks_1-31" value="Saphornithischia" style="rounded=0;whiteSpace=wrap;html=1;" vertex="1" parent="1">
          <mxGeometry x="2349" y="819" width="120" height="60" as="geometry" />
        </mxCell>
        <mxCell id="PtrrE2Xn4478rQurks_1-32" value="" style="endArrow=none;html=1;rounded=0;exitX=0.5;exitY=1;exitDx=0;exitDy=0;entryX=0.5;entryY=0;entryDx=0;entryDy=0;" edge="1" parent="1" source="PtrrE2Xn4478rQurks_1-31" target="PtrrE2Xn4478rQurks_1-10">
          <mxGeometry width="50" height="50" relative="1" as="geometry">
            <mxPoint x="3321" y="869" as="sourcePoint" />
            <mxPoint x="3371" y="819" as="targetPoint" />
          </mxGeometry>
        </mxCell>
        <mxCell id="PtrrE2Xn4478rQurks_1-33" value="Stegosauria" style="rounded=0;whiteSpace=wrap;html=1;" vertex="1" parent="1">
          <mxGeometry x="312" y="1257" width="120" height="60" as="geometry" />
        </mxCell>
        <mxCell id="PtrrE2Xn4478rQurks_1-34" value="" style="endArrow=none;html=1;rounded=0;exitX=0.25;exitY=1;exitDx=0;exitDy=0;entryX=0.5;entryY=0;entryDx=0;entryDy=0;" edge="1" parent="1" source="PtrrE2Xn4478rQurks_1-25" target="PtrrE2Xn4478rQurks_1-33">
          <mxGeometry width="50" height="50" relative="1" as="geometry">
            <mxPoint x="902" y="1177" as="sourcePoint" />
            <mxPoint x="1107" y="1075" as="targetPoint" />
          </mxGeometry>
        </mxCell>
        <mxCell id="PtrrE2Xn4478rQurks_1-35" value="Ankylosauria" style="rounded=0;whiteSpace=wrap;html=1;" vertex="1" parent="1">
          <mxGeometry x="1046" y="1247" width="120" height="60" as="geometry" />
        </mxCell>
        <mxCell id="PtrrE2Xn4478rQurks_1-36" value="" style="endArrow=none;html=1;rounded=0;exitX=0.5;exitY=0;exitDx=0;exitDy=0;entryX=0.75;entryY=1;entryDx=0;entryDy=0;" edge="1" parent="1" source="PtrrE2Xn4478rQurks_1-35" target="PtrrE2Xn4478rQurks_1-25">
          <mxGeometry width="50" height="50" relative="1" as="geometry">
            <mxPoint x="963" y="1213" as="sourcePoint" />
            <mxPoint x="1113" y="1043" as="targetPoint" />
          </mxGeometry>
        </mxCell>
        <mxCell id="PtrrE2Xn4478rQurks_1-37" value="Stegosaurus" style="ellipse;whiteSpace=wrap;html=1;" vertex="1" parent="1">
          <mxGeometry x="20" y="1420" width="120" height="80" as="geometry" />
        </mxCell>
        <mxCell id="PtrrE2Xn4478rQurks_1-38" value="" style="endArrow=none;html=1;rounded=0;entryX=0.25;entryY=1;entryDx=0;entryDy=0;exitX=0.5;exitY=0;exitDx=0;exitDy=0;" edge="1" parent="1" source="PtrrE2Xn4478rQurks_1-39" target="PtrrE2Xn4478rQurks_1-29">
          <mxGeometry width="50" height="50" relative="1" as="geometry">
            <mxPoint x="2610" y="1238" as="sourcePoint" />
            <mxPoint x="2660" y="958" as="targetPoint" />
          </mxGeometry>
        </mxCell>
        <mxCell id="PtrrE2Xn4478rQurks_1-39" value="Cerapoda" style="rounded=0;whiteSpace=wrap;html=1;" vertex="1" parent="1">
          <mxGeometry x="2450" y="1247" width="120" height="60" as="geometry" />
        </mxCell>
        <mxCell id="PtrrE2Xn4478rQurks_1-40" value="Ornithopoda" style="rounded=0;whiteSpace=wrap;html=1;" vertex="1" parent="1">
          <mxGeometry x="1872" y="1467" width="120" height="60" as="geometry" />
        </mxCell>
        <mxCell id="PtrrE2Xn4478rQurks_1-41" value="Marginocephalia" style="rounded=0;whiteSpace=wrap;html=1;" vertex="1" parent="1">
          <mxGeometry x="2750" y="1460" width="120" height="60" as="geometry" />
        </mxCell>
        <mxCell id="PtrrE2Xn4478rQurks_1-42" value="" style="endArrow=none;html=1;rounded=0;entryX=0.25;entryY=1;entryDx=0;entryDy=0;exitX=0.5;exitY=0;exitDx=0;exitDy=0;" edge="1" parent="1" source="PtrrE2Xn4478rQurks_1-40" target="PtrrE2Xn4478rQurks_1-39">
          <mxGeometry width="50" height="50" relative="1" as="geometry">
            <mxPoint x="2473" y="1446" as="sourcePoint" />
            <mxPoint x="2469" y="958" as="targetPoint" />
          </mxGeometry>
        </mxCell>
        <mxCell id="PtrrE2Xn4478rQurks_1-43" value="" style="endArrow=none;html=1;rounded=0;exitX=0.5;exitY=0;exitDx=0;exitDy=0;entryX=0.75;entryY=1;entryDx=0;entryDy=0;" edge="1" parent="1" source="PtrrE2Xn4478rQurks_1-41" target="PtrrE2Xn4478rQurks_1-39">
          <mxGeometry width="50" height="50" relative="1" as="geometry">
            <mxPoint x="2419" y="1008" as="sourcePoint" />
            <mxPoint x="2469" y="958" as="targetPoint" />
          </mxGeometry>
        </mxCell>
        <mxCell id="PtrrE2Xn4478rQurks_1-44" value="Mymoorapelta" style="ellipse;whiteSpace=wrap;html=1;" vertex="1" parent="1">
          <mxGeometry x="459" y="1596" width="120" height="80" as="geometry" />
        </mxCell>
        <mxCell id="PtrrE2Xn4478rQurks_1-45" value="Nodosauridae" style="rounded=0;whiteSpace=wrap;html=1;" vertex="1" parent="1">
          <mxGeometry x="591" y="1606" width="120" height="60" as="geometry" />
        </mxCell>
        <mxCell id="PtrrE2Xn4478rQurks_1-46" value="Ankylosauridae" style="rounded=0;whiteSpace=wrap;html=1;" vertex="1" parent="1">
          <mxGeometry x="1032" y="1606" width="120" height="60" as="geometry" />
        </mxCell>
        <mxCell id="PtrrE2Xn4478rQurks_1-47" value="Hylaeosaurus" style="ellipse;whiteSpace=wrap;html=1;" vertex="1" parent="1">
          <mxGeometry x="1162" y="1596" width="120" height="80" as="geometry" />
        </mxCell>
        <mxCell id="PtrrE2Xn4478rQurks_1-48" value="" style="endArrow=none;html=1;rounded=0;exitX=0.75;exitY=1;exitDx=0;exitDy=0;entryX=0.5;entryY=0;entryDx=0;entryDy=0;" edge="1" parent="1" source="PtrrE2Xn4478rQurks_1-35" target="PtrrE2Xn4478rQurks_1-136">
          <mxGeometry width="50" height="50" relative="1" as="geometry">
            <mxPoint x="1310" y="1099" as="sourcePoint" />
            <mxPoint x="1212" y="1490" as="targetPoint" />
          </mxGeometry>
        </mxCell>
        <mxCell id="PtrrE2Xn4478rQurks_1-49" value="" style="endArrow=none;html=1;rounded=0;exitX=0.25;exitY=1;exitDx=0;exitDy=0;entryX=0.5;entryY=0;entryDx=0;entryDy=0;" edge="1" parent="1" source="PtrrE2Xn4478rQurks_1-35" target="PtrrE2Xn4478rQurks_1-137">
          <mxGeometry width="50" height="50" relative="1" as="geometry">
            <mxPoint x="1310" y="1099" as="sourcePoint" />
            <mxPoint x="1032" y="1500" as="targetPoint" />
          </mxGeometry>
        </mxCell>
        <mxCell id="PtrrE2Xn4478rQurks_1-50" value="Ankylosaurinae" style="rounded=0;whiteSpace=wrap;html=1;" vertex="1" parent="1">
          <mxGeometry x="1165" y="1769.5" width="120" height="60" as="geometry" />
        </mxCell>
        <mxCell id="PtrrE2Xn4478rQurks_1-51" value="" style="endArrow=none;html=1;rounded=0;entryX=0.75;entryY=1;entryDx=0;entryDy=0;exitX=0.5;exitY=0;exitDx=0;exitDy=0;" edge="1" parent="1" source="PtrrE2Xn4478rQurks_1-50" target="PtrrE2Xn4478rQurks_1-46">
          <mxGeometry width="50" height="50" relative="1" as="geometry">
            <mxPoint x="1260" y="1808" as="sourcePoint" />
            <mxPoint x="1310" y="1758" as="targetPoint" />
          </mxGeometry>
        </mxCell>
        <mxCell id="PtrrE2Xn4478rQurks_1-52" value="Ankylosaurus" style="ellipse;whiteSpace=wrap;html=1;" vertex="1" parent="1">
          <mxGeometry x="1297" y="1780" width="120" height="80" as="geometry" />
        </mxCell>
        <mxCell id="PtrrE2Xn4478rQurks_1-54" value="Thescelosauridae" style="rounded=0;whiteSpace=wrap;html=1;" vertex="1" parent="1">
          <mxGeometry x="3401.5" y="1247" width="120" height="60" as="geometry" />
        </mxCell>
        <mxCell id="PtrrE2Xn4478rQurks_1-55" value="" style="endArrow=none;html=1;rounded=0;entryX=0.5;entryY=0;entryDx=0;entryDy=0;exitX=0.75;exitY=1;exitDx=0;exitDy=0;" edge="1" parent="1" source="PtrrE2Xn4478rQurks_1-29" target="PtrrE2Xn4478rQurks_1-54">
          <mxGeometry width="50" height="50" relative="1" as="geometry">
            <mxPoint x="2343" y="1210" as="sourcePoint" />
            <mxPoint x="2393" y="1160" as="targetPoint" />
          </mxGeometry>
        </mxCell>
        <mxCell id="PtrrE2Xn4478rQurks_1-56" value="" style="endArrow=none;html=1;rounded=0;entryX=0.5;entryY=0;entryDx=0;entryDy=0;exitX=0.75;exitY=1;exitDx=0;exitDy=0;" edge="1" parent="1" source="PtrrE2Xn4478rQurks_1-54" target="PtrrE2Xn4478rQurks_1-57">
          <mxGeometry width="50" height="50" relative="1" as="geometry">
            <mxPoint x="3501.5" y="1373" as="sourcePoint" />
            <mxPoint x="3091.5" y="1163" as="targetPoint" />
          </mxGeometry>
        </mxCell>
        <mxCell id="PtrrE2Xn4478rQurks_1-57" value="Thescelosaurinae" style="rounded=0;whiteSpace=wrap;html=1;" vertex="1" parent="1">
          <mxGeometry x="3555.5" y="1462" width="120" height="60" as="geometry" />
        </mxCell>
        <mxCell id="PtrrE2Xn4478rQurks_1-58" value="Thescelosaurus" style="ellipse;whiteSpace=wrap;html=1;" vertex="1" parent="1">
          <mxGeometry x="3695.5" y="1452" width="120" height="80" as="geometry" />
        </mxCell>
        <mxCell id="PtrrE2Xn4478rQurks_1-59" value="Orodromeus" style="ellipse;whiteSpace=wrap;html=1;" vertex="1" parent="1">
          <mxGeometry x="3129.5" y="1471" width="120" height="80" as="geometry" />
        </mxCell>
        <mxCell id="PtrrE2Xn4478rQurks_1-60" value="" style="endArrow=none;html=1;rounded=0;entryX=0.25;entryY=1;entryDx=0;entryDy=0;exitX=0.5;exitY=0;exitDx=0;exitDy=0;" edge="1" parent="1" source="PtrrE2Xn4478rQurks_1-61" target="PtrrE2Xn4478rQurks_1-54">
          <mxGeometry width="50" height="50" relative="1" as="geometry">
            <mxPoint x="3352.5" y="1453" as="sourcePoint" />
            <mxPoint x="3430.5" y="1307" as="targetPoint" />
          </mxGeometry>
        </mxCell>
        <mxCell id="PtrrE2Xn4478rQurks_1-61" value="Orodrominae" style="rounded=0;whiteSpace=wrap;html=1;" vertex="1" parent="1">
          <mxGeometry x="3261.5" y="1462" width="120" height="60" as="geometry" />
        </mxCell>
        <mxCell id="PtrrE2Xn4478rQurks_1-62" value="" style="endArrow=none;html=1;rounded=0;entryX=0.25;entryY=1;entryDx=0;entryDy=0;exitX=0.5;exitY=0;exitDx=0;exitDy=0;" edge="1" parent="1" source="PtrrE2Xn4478rQurks_1-69" target="PtrrE2Xn4478rQurks_1-40">
          <mxGeometry width="50" height="50" relative="1" as="geometry">
            <mxPoint x="1810" y="1638" as="sourcePoint" />
            <mxPoint x="1910" y="1398" as="targetPoint" />
          </mxGeometry>
        </mxCell>
        <mxCell id="PtrrE2Xn4478rQurks_1-66" value="Jeholosaurus" style="ellipse;whiteSpace=wrap;html=1;" vertex="1" parent="1">
          <mxGeometry x="2784" y="1107" width="120" height="80" as="geometry" />
        </mxCell>
        <mxCell id="PtrrE2Xn4478rQurks_1-67" value="Elasmaria" style="rounded=0;whiteSpace=wrap;html=1;" vertex="1" parent="1">
          <mxGeometry x="1521" y="1930" width="120" height="60" as="geometry" />
        </mxCell>
        <mxCell id="PtrrE2Xn4478rQurks_1-68" value="Macrogryphosaurus" style="ellipse;whiteSpace=wrap;html=1;" vertex="1" parent="1">
          <mxGeometry x="1651" y="1896.75" width="120" height="80" as="geometry" />
        </mxCell>
        <mxCell id="PtrrE2Xn4478rQurks_1-69" value="Iguanodontia" style="rounded=0;whiteSpace=wrap;html=1;" vertex="1" parent="1">
          <mxGeometry x="1767" y="1606" width="120" height="60" as="geometry" />
        </mxCell>
        <mxCell id="PtrrE2Xn4478rQurks_1-70" value="" style="endArrow=none;html=1;rounded=0;entryX=0.25;entryY=1;entryDx=0;entryDy=0;exitX=0.5;exitY=0;exitDx=0;exitDy=0;" edge="1" parent="1" source="PtrrE2Xn4478rQurks_1-71" target="PtrrE2Xn4478rQurks_1-41">
          <mxGeometry width="50" height="50" relative="1" as="geometry">
            <mxPoint x="2735" y="1606" as="sourcePoint" />
            <mxPoint x="2618" y="1290" as="targetPoint" />
          </mxGeometry>
        </mxCell>
        <mxCell id="PtrrE2Xn4478rQurks_1-71" value="Pachycephalosauria" style="rounded=0;whiteSpace=wrap;html=1;" vertex="1" parent="1">
          <mxGeometry x="2712" y="1606" width="120" height="60" as="geometry" />
        </mxCell>
        <mxCell id="PtrrE2Xn4478rQurks_1-72" value="" style="endArrow=none;html=1;rounded=0;entryX=0.75;entryY=1;entryDx=0;entryDy=0;exitX=0.5;exitY=0;exitDx=0;exitDy=0;" edge="1" parent="1" source="PtrrE2Xn4478rQurks_1-73" target="PtrrE2Xn4478rQurks_1-41">
          <mxGeometry width="50" height="50" relative="1" as="geometry">
            <mxPoint x="2969" y="1606" as="sourcePoint" />
            <mxPoint x="2568" y="1360" as="targetPoint" />
          </mxGeometry>
        </mxCell>
        <mxCell id="PtrrE2Xn4478rQurks_1-73" value="Ceratopsia" style="rounded=0;whiteSpace=wrap;html=1;" vertex="1" parent="1">
          <mxGeometry x="2910" y="1606" width="120" height="60" as="geometry" />
        </mxCell>
        <mxCell id="PtrrE2Xn4478rQurks_1-74" value="Wannanosaurus" style="ellipse;whiteSpace=wrap;html=1;" vertex="1" parent="1">
          <mxGeometry x="2579" y="1596" width="120" height="80" as="geometry" />
        </mxCell>
        <mxCell id="PtrrE2Xn4478rQurks_1-75" value="Psittacosaurus" style="ellipse;whiteSpace=wrap;html=1;" vertex="1" parent="1">
          <mxGeometry x="3039" y="1596" width="120" height="80" as="geometry" />
        </mxCell>
        <mxCell id="PtrrE2Xn4478rQurks_1-76" value="" style="endArrow=none;html=1;rounded=0;entryX=0.5;entryY=1;entryDx=0;entryDy=0;exitX=0.5;exitY=0;exitDx=0;exitDy=0;" edge="1" parent="1" source="PtrrE2Xn4478rQurks_1-77" target="PtrrE2Xn4478rQurks_1-71">
          <mxGeometry width="50" height="50" relative="1" as="geometry">
            <mxPoint x="2694" y="1740" as="sourcePoint" />
            <mxPoint x="2759" y="1666" as="targetPoint" />
          </mxGeometry>
        </mxCell>
        <mxCell id="PtrrE2Xn4478rQurks_1-77" value="Pachycephalosauridae" style="rounded=0;whiteSpace=wrap;html=1;" vertex="1" parent="1">
          <mxGeometry x="2654" y="1770" width="120" height="60" as="geometry" />
        </mxCell>
        <mxCell id="PtrrE2Xn4478rQurks_1-78" value="Pachycephalosaurus" style="ellipse;whiteSpace=wrap;html=1;" vertex="1" parent="1">
          <mxGeometry x="2362" y="2135" width="120" height="80" as="geometry" />
        </mxCell>
        <mxCell id="PtrrE2Xn4478rQurks_1-79" value="Neoceratopsia" style="rounded=0;whiteSpace=wrap;html=1;" vertex="1" parent="1">
          <mxGeometry x="3217" y="1770" width="120" height="60" as="geometry" />
        </mxCell>
        <mxCell id="PtrrE2Xn4478rQurks_1-80" value="" style="endArrow=none;html=1;rounded=0;exitX=0.5;exitY=0;exitDx=0;exitDy=0;entryX=0.5;entryY=1;entryDx=0;entryDy=0;" edge="1" parent="1" source="PtrrE2Xn4478rQurks_1-79" target="PtrrE2Xn4478rQurks_1-73">
          <mxGeometry width="50" height="50" relative="1" as="geometry">
            <mxPoint x="2710" y="1450" as="sourcePoint" />
            <mxPoint x="2969" y="1666" as="targetPoint" />
          </mxGeometry>
        </mxCell>
        <mxCell id="PtrrE2Xn4478rQurks_1-81" value="Leptoceratops" style="ellipse;whiteSpace=wrap;html=1;" vertex="1" parent="1">
          <mxGeometry x="3545" y="1920" width="120" height="80" as="geometry" />
        </mxCell>
        <mxCell id="PtrrE2Xn4478rQurks_1-82" value="" style="endArrow=none;html=1;rounded=0;entryX=0.25;entryY=1;entryDx=0;entryDy=0;exitX=0.5;exitY=0;exitDx=0;exitDy=0;" edge="1" parent="1" source="PtrrE2Xn4478rQurks_1-83" target="PtrrE2Xn4478rQurks_1-79">
          <mxGeometry width="50" height="50" relative="1" as="geometry">
            <mxPoint x="3326" y="1950" as="sourcePoint" />
            <mxPoint x="3446" y="1530" as="targetPoint" />
          </mxGeometry>
        </mxCell>
        <mxCell id="PtrrE2Xn4478rQurks_1-83" value="Coronosauria" style="rounded=0;whiteSpace=wrap;html=1;" vertex="1" parent="1">
          <mxGeometry x="3076" y="1930" width="120" height="60" as="geometry" />
        </mxCell>
        <mxCell id="PtrrE2Xn4478rQurks_1-85" value="Protoceratopsidae" style="rounded=0;whiteSpace=wrap;html=1;" vertex="1" parent="1">
          <mxGeometry x="3294" y="2120" width="120" height="60" as="geometry" />
        </mxCell>
        <mxCell id="PtrrE2Xn4478rQurks_1-86" value="Leptoceratopsidae" style="rounded=0;whiteSpace=wrap;html=1;" vertex="1" parent="1">
          <mxGeometry x="3405" y="1930" width="120" height="60" as="geometry" />
        </mxCell>
        <mxCell id="PtrrE2Xn4478rQurks_1-87" value="" style="endArrow=none;html=1;rounded=0;exitX=0.75;exitY=1;exitDx=0;exitDy=0;entryX=0.5;entryY=0;entryDx=0;entryDy=0;" edge="1" parent="1" source="PtrrE2Xn4478rQurks_1-79" target="PtrrE2Xn4478rQurks_1-86">
          <mxGeometry width="50" height="50" relative="1" as="geometry">
            <mxPoint x="3416" y="1780" as="sourcePoint" />
            <mxPoint x="3466" y="1730" as="targetPoint" />
          </mxGeometry>
        </mxCell>
        <mxCell id="PtrrE2Xn4478rQurks_1-89" value="" style="endArrow=none;html=1;rounded=0;entryX=0.75;entryY=1;entryDx=0;entryDy=0;exitX=0.5;exitY=0;exitDx=0;exitDy=0;" edge="1" parent="1" source="PtrrE2Xn4478rQurks_1-85" target="PtrrE2Xn4478rQurks_1-83">
          <mxGeometry width="50" height="50" relative="1" as="geometry">
            <mxPoint x="3246" y="1780" as="sourcePoint" />
            <mxPoint x="3296" y="1730" as="targetPoint" />
          </mxGeometry>
        </mxCell>
        <mxCell id="PtrrE2Xn4478rQurks_1-90" value="Protoceratops" style="ellipse;whiteSpace=wrap;html=1;" vertex="1" parent="1">
          <mxGeometry x="3425" y="2135" width="120" height="80" as="geometry" />
        </mxCell>
        <mxCell id="PtrrE2Xn4478rQurks_1-91" value="Begaceratops" style="ellipse;whiteSpace=wrap;html=1;" vertex="1" parent="1">
          <mxGeometry x="3425" y="2085" width="120" height="80" as="geometry" />
        </mxCell>
        <mxCell id="PtrrE2Xn4478rQurks_1-92" value="Stegoceras" style="ellipse;whiteSpace=wrap;html=1;" vertex="1" parent="1">
          <mxGeometry x="2524" y="1760" width="120" height="80" as="geometry" />
        </mxCell>
        <mxCell id="PtrrE2Xn4478rQurks_1-93" value="Pachycephalosaurinae" style="rounded=0;whiteSpace=wrap;html=1;" vertex="1" parent="1">
          <mxGeometry x="2593" y="1930" width="120" height="60" as="geometry" />
        </mxCell>
        <mxCell id="PtrrE2Xn4478rQurks_1-94" value="" style="endArrow=none;html=1;rounded=0;exitX=0.5;exitY=1;exitDx=0;exitDy=0;entryX=0.5;entryY=0;entryDx=0;entryDy=0;" edge="1" parent="1" source="PtrrE2Xn4478rQurks_1-77" target="PtrrE2Xn4478rQurks_1-93">
          <mxGeometry width="50" height="50" relative="1" as="geometry">
            <mxPoint x="3044" y="1810" as="sourcePoint" />
            <mxPoint x="3094" y="1760" as="targetPoint" />
          </mxGeometry>
        </mxCell>
        <mxCell id="PtrrE2Xn4478rQurks_1-95" value="Stygimoloch" style="ellipse;whiteSpace=wrap;html=1;" vertex="1" parent="1">
          <mxGeometry x="2362" y="2085" width="120" height="80" as="geometry" />
        </mxCell>
        <mxCell id="PtrrE2Xn4478rQurks_1-96" value="Diabloceratops" style="ellipse;whiteSpace=wrap;html=1;" vertex="1" parent="1">
          <mxGeometry x="2623.5" y="2265" width="120" height="80" as="geometry" />
        </mxCell>
        <mxCell id="PtrrE2Xn4478rQurks_1-97" value="Ceratopsidae" style="rounded=0;whiteSpace=wrap;html=1;" vertex="1" parent="1">
          <mxGeometry x="2941" y="2120" width="120" height="60" as="geometry" />
        </mxCell>
        <mxCell id="PtrrE2Xn4478rQurks_1-98" value="" style="endArrow=none;html=1;rounded=0;exitX=0.25;exitY=1;exitDx=0;exitDy=0;entryX=0.5;entryY=0;entryDx=0;entryDy=0;" edge="1" parent="1" source="PtrrE2Xn4478rQurks_1-83" target="PtrrE2Xn4478rQurks_1-97">
          <mxGeometry width="50" height="50" relative="1" as="geometry">
            <mxPoint x="3015.9999999999995" y="2180" as="sourcePoint" />
            <mxPoint x="3156" y="1930" as="targetPoint" />
          </mxGeometry>
        </mxCell>
        <mxCell id="PtrrE2Xn4478rQurks_1-99" value="&lt;div&gt;Pachycephalosaurini&lt;/div&gt;" style="rounded=0;whiteSpace=wrap;html=1;" vertex="1" parent="1">
          <mxGeometry x="2492" y="2120" width="120" height="60" as="geometry" />
        </mxCell>
        <mxCell id="PtrrE2Xn4478rQurks_1-100" value="" style="endArrow=none;html=1;rounded=0;exitX=0.5;exitY=1;exitDx=0;exitDy=0;entryX=0.5;entryY=0;entryDx=0;entryDy=0;" edge="1" parent="1" source="PtrrE2Xn4478rQurks_1-93" target="PtrrE2Xn4478rQurks_1-99">
          <mxGeometry width="50" height="50" relative="1" as="geometry">
            <mxPoint x="2904" y="1980" as="sourcePoint" />
            <mxPoint x="2954" y="1930" as="targetPoint" />
          </mxGeometry>
        </mxCell>
        <mxCell id="PtrrE2Xn4478rQurks_1-102" value="Goyocephale" style="ellipse;whiteSpace=wrap;html=1;" vertex="1" parent="1">
          <mxGeometry x="2457" y="1920" width="120" height="80" as="geometry" />
        </mxCell>
        <mxCell id="PtrrE2Xn4478rQurks_1-103" value="Ceratops" style="ellipse;whiteSpace=wrap;html=1;" vertex="1" parent="1">
          <mxGeometry x="2812" y="2110" width="120" height="80" as="geometry" />
        </mxCell>
        <mxCell id="PtrrE2Xn4478rQurks_1-104" value="Chasmosaurinae" style="rounded=0;whiteSpace=wrap;html=1;" vertex="1" parent="1">
          <mxGeometry x="3136" y="2275" width="120" height="60" as="geometry" />
        </mxCell>
        <mxCell id="PtrrE2Xn4478rQurks_1-105" value="Centrosaurinae" style="rounded=0;whiteSpace=wrap;html=1;" vertex="1" parent="1">
          <mxGeometry x="2754.5" y="2275" width="120" height="60" as="geometry" />
        </mxCell>
        <mxCell id="PtrrE2Xn4478rQurks_1-106" value="" style="endArrow=none;html=1;rounded=0;entryX=0.5;entryY=0;entryDx=0;entryDy=0;exitX=0.75;exitY=1;exitDx=0;exitDy=0;" edge="1" parent="1" source="PtrrE2Xn4478rQurks_1-97" target="PtrrE2Xn4478rQurks_1-104">
          <mxGeometry width="50" height="50" relative="1" as="geometry">
            <mxPoint x="2890" y="2180" as="sourcePoint" />
            <mxPoint x="2863" y="1760" as="targetPoint" />
          </mxGeometry>
        </mxCell>
        <mxCell id="PtrrE2Xn4478rQurks_1-107" value="" style="endArrow=none;html=1;rounded=0;exitX=0.5;exitY=0;exitDx=0;exitDy=0;entryX=0.25;entryY=1;entryDx=0;entryDy=0;" edge="1" parent="1" source="PtrrE2Xn4478rQurks_1-105" target="PtrrE2Xn4478rQurks_1-97">
          <mxGeometry width="50" height="50" relative="1" as="geometry">
            <mxPoint x="3069" y="1810" as="sourcePoint" />
            <mxPoint x="3119" y="1760" as="targetPoint" />
          </mxGeometry>
        </mxCell>
        <mxCell id="PtrrE2Xn4478rQurks_1-108" value="Regaliceratops" style="ellipse;whiteSpace=wrap;html=1;" vertex="1" parent="1">
          <mxGeometry x="3263" y="2265" width="120" height="80" as="geometry" />
        </mxCell>
        <mxCell id="PtrrE2Xn4478rQurks_1-110" value="Triceratopsini" style="rounded=0;whiteSpace=wrap;html=1;" vertex="1" parent="1">
          <mxGeometry x="3283" y="2424.5" width="120" height="60" as="geometry" />
        </mxCell>
        <mxCell id="PtrrE2Xn4478rQurks_1-111" value="" style="endArrow=none;html=1;rounded=0;exitX=0.5;exitY=1;exitDx=0;exitDy=0;entryX=0.5;entryY=0;entryDx=0;entryDy=0;" edge="1" parent="1" source="PtrrE2Xn4478rQurks_1-104" target="PtrrE2Xn4478rQurks_1-110">
          <mxGeometry width="50" height="50" relative="1" as="geometry">
            <mxPoint x="3384" y="2135" as="sourcePoint" />
            <mxPoint x="3434" y="2085" as="targetPoint" />
          </mxGeometry>
        </mxCell>
        <mxCell id="PtrrE2Xn4478rQurks_1-112" value="Torosaurus" style="ellipse;whiteSpace=wrap;html=1;" vertex="1" parent="1">
          <mxGeometry x="3413" y="2429.5" width="120" height="80" as="geometry" />
        </mxCell>
        <mxCell id="PtrrE2Xn4478rQurks_1-113" value="Triceratops" style="ellipse;whiteSpace=wrap;html=1;" vertex="1" parent="1">
          <mxGeometry x="3413" y="2379.5" width="120" height="80" as="geometry" />
        </mxCell>
        <mxCell id="PtrrE2Xn4478rQurks_1-114" value="Nasutoceratopsini" style="rounded=0;whiteSpace=wrap;html=1;" vertex="1" parent="1">
          <mxGeometry x="2931" y="2424.5" width="120" height="60" as="geometry" />
        </mxCell>
        <mxCell id="PtrrE2Xn4478rQurks_1-115" value="Nasutoceratops" style="ellipse;whiteSpace=wrap;html=1;" vertex="1" parent="1">
          <mxGeometry x="3061" y="2414.5" width="120" height="80" as="geometry" />
        </mxCell>
        <mxCell id="PtrrE2Xn4478rQurks_1-116" value="" style="endArrow=none;html=1;rounded=0;exitX=0.25;exitY=0;exitDx=0;exitDy=0;entryX=0.75;entryY=1;entryDx=0;entryDy=0;" edge="1" parent="1" source="PtrrE2Xn4478rQurks_1-114" target="PtrrE2Xn4478rQurks_1-105">
          <mxGeometry width="50" height="50" relative="1" as="geometry">
            <mxPoint x="3292.9999999999995" y="2955.5" as="sourcePoint" />
            <mxPoint x="3194.0000000000005" y="2550.5" as="targetPoint" />
          </mxGeometry>
        </mxCell>
        <mxCell id="PtrrE2Xn4478rQurks_1-117" value="" style="endArrow=none;html=1;rounded=0;entryX=0.25;entryY=1;entryDx=0;entryDy=0;exitX=0.5;exitY=0;exitDx=0;exitDy=0;" edge="1" parent="1" source="PtrrE2Xn4478rQurks_1-122" target="PtrrE2Xn4478rQurks_1-105">
          <mxGeometry width="50" height="50" relative="1" as="geometry">
            <mxPoint x="2954.5" y="2395" as="sourcePoint" />
            <mxPoint x="2774.5" y="2155" as="targetPoint" />
          </mxGeometry>
        </mxCell>
        <mxCell id="PtrrE2Xn4478rQurks_1-118" value="Centrosaurini" style="rounded=0;whiteSpace=wrap;html=1;" vertex="1" parent="1">
          <mxGeometry x="2749" y="2595" width="120" height="60" as="geometry" />
        </mxCell>
        <mxCell id="PtrrE2Xn4478rQurks_1-119" value="Albertaceratops" style="ellipse;whiteSpace=wrap;html=1;" vertex="1" parent="1">
          <mxGeometry x="2881.5" y="2285" width="120" height="80" as="geometry" />
        </mxCell>
        <mxCell id="PtrrE2Xn4478rQurks_1-120" value="Styracosaurus" style="ellipse;whiteSpace=wrap;html=1;" vertex="1" parent="1">
          <mxGeometry x="2886" y="2610.5" width="120" height="80" as="geometry" />
        </mxCell>
        <mxCell id="PtrrE2Xn4478rQurks_1-121" value="Centrosaurus" style="ellipse;whiteSpace=wrap;html=1;" vertex="1" parent="1">
          <mxGeometry x="2886" y="2559.5" width="120" height="80" as="geometry" />
        </mxCell>
        <mxCell id="PtrrE2Xn4478rQurks_1-122" value="Eucentrosaura" style="rounded=0;whiteSpace=wrap;html=1;" vertex="1" parent="1">
          <mxGeometry x="2588.5" y="2424.5" width="120" height="60" as="geometry" />
        </mxCell>
        <mxCell id="PtrrE2Xn4478rQurks_1-123" value="" style="endArrow=none;html=1;rounded=0;entryX=0.25;entryY=1;entryDx=0;entryDy=0;exitX=0.5;exitY=0;exitDx=0;exitDy=0;" edge="1" parent="1" source="PtrrE2Xn4478rQurks_1-125" target="PtrrE2Xn4478rQurks_1-122">
          <mxGeometry width="50" height="50" relative="1" as="geometry">
            <mxPoint x="2552.5" y="2554.5" as="sourcePoint" />
            <mxPoint x="2602.5" y="2484.5" as="targetPoint" />
          </mxGeometry>
        </mxCell>
        <mxCell id="PtrrE2Xn4478rQurks_1-124" value="" style="endArrow=none;html=1;rounded=0;entryX=0.75;entryY=1;entryDx=0;entryDy=0;exitX=0.5;exitY=0;exitDx=0;exitDy=0;" edge="1" parent="1" source="PtrrE2Xn4478rQurks_1-118" target="PtrrE2Xn4478rQurks_1-122">
          <mxGeometry width="50" height="50" relative="1" as="geometry">
            <mxPoint x="2718.5" y="2544.5" as="sourcePoint" />
            <mxPoint x="2558.5" y="2154.5" as="targetPoint" />
          </mxGeometry>
        </mxCell>
        <mxCell id="PtrrE2Xn4478rQurks_1-125" value="Pachyrhinosaurini" style="rounded=0;whiteSpace=wrap;html=1;" vertex="1" parent="1">
          <mxGeometry x="2441" y="2595" width="120" height="60" as="geometry" />
        </mxCell>
        <mxCell id="PtrrE2Xn4478rQurks_1-126" value="Achelosaurus" style="ellipse;whiteSpace=wrap;html=1;" vertex="1" parent="1">
          <mxGeometry x="2311" y="2559.5" width="120" height="80" as="geometry" />
        </mxCell>
        <mxCell id="PtrrE2Xn4478rQurks_1-127" value="Pachyrhinosaurus" style="ellipse;whiteSpace=wrap;html=1;" vertex="1" parent="1">
          <mxGeometry x="2311" y="2610.5" width="120" height="80" as="geometry" />
        </mxCell>
        <mxCell id="PtrrE2Xn4478rQurks_1-128" value="Talenkauen" style="ellipse;whiteSpace=wrap;html=1;" vertex="1" parent="1">
          <mxGeometry x="1651" y="1939.75" width="120" height="80" as="geometry" />
        </mxCell>
        <mxCell id="PtrrE2Xn4478rQurks_1-129" value="Stegosauridae" style="rounded=0;whiteSpace=wrap;html=1;" vertex="1" parent="1">
          <mxGeometry x="150" y="1457" width="120" height="60" as="geometry" />
        </mxCell>
        <mxCell id="PtrrE2Xn4478rQurks_1-130" value="Huyangosauridae" style="rounded=0;whiteSpace=wrap;html=1;" vertex="1" parent="1">
          <mxGeometry x="433" y="1459" width="120" height="60" as="geometry" />
        </mxCell>
        <mxCell id="PtrrE2Xn4478rQurks_1-131" value="" style="endArrow=none;html=1;rounded=0;entryX=0.75;entryY=1;entryDx=0;entryDy=0;exitX=0.5;exitY=0;exitDx=0;exitDy=0;" edge="1" parent="1" source="PtrrE2Xn4478rQurks_1-130" target="PtrrE2Xn4478rQurks_1-33">
          <mxGeometry width="50" height="50" relative="1" as="geometry">
            <mxPoint x="882" y="1510" as="sourcePoint" />
            <mxPoint x="932" y="1460" as="targetPoint" />
          </mxGeometry>
        </mxCell>
        <mxCell id="PtrrE2Xn4478rQurks_1-132" value="" style="endArrow=none;html=1;rounded=0;entryX=0.25;entryY=1;entryDx=0;entryDy=0;exitX=0.5;exitY=0;exitDx=0;exitDy=0;" edge="1" parent="1" source="PtrrE2Xn4478rQurks_1-129" target="PtrrE2Xn4478rQurks_1-33">
          <mxGeometry width="50" height="50" relative="1" as="geometry">
            <mxPoint x="202" y="1410" as="sourcePoint" />
            <mxPoint x="932" y="1460" as="targetPoint" />
          </mxGeometry>
        </mxCell>
        <mxCell id="PtrrE2Xn4478rQurks_1-133" value="Kentrosaurus" style="ellipse;whiteSpace=wrap;html=1;" vertex="1" parent="1">
          <mxGeometry x="20" y="1474" width="120" height="80" as="geometry" />
        </mxCell>
        <mxCell id="PtrrE2Xn4478rQurks_1-134" value="Huyangosaurus" style="ellipse;whiteSpace=wrap;html=1;" vertex="1" parent="1">
          <mxGeometry x="564" y="1467" width="120" height="80" as="geometry" />
        </mxCell>
        <mxCell id="PtrrE2Xn4478rQurks_1-135" value="Tuojiangosaurus" style="ellipse;whiteSpace=wrap;html=1;" vertex="1" parent="1">
          <mxGeometry x="564" y="1413" width="120" height="80" as="geometry" />
        </mxCell>
        <mxCell id="PtrrE2Xn4478rQurks_1-136" value="Parankylosauria" style="rounded=0;whiteSpace=wrap;html=1;" vertex="1" parent="1">
          <mxGeometry x="1231" y="1457" width="120" height="60" as="geometry" />
        </mxCell>
        <mxCell id="PtrrE2Xn4478rQurks_1-137" value="Euankylosauria" style="rounded=0;whiteSpace=wrap;html=1;" vertex="1" parent="1">
          <mxGeometry x="885" y="1457" width="120" height="60" as="geometry" />
        </mxCell>
        <mxCell id="PtrrE2Xn4478rQurks_1-138" value="" style="endArrow=none;html=1;rounded=0;entryX=0.25;entryY=1;entryDx=0;entryDy=0;exitX=0.5;exitY=0;exitDx=0;exitDy=0;" edge="1" parent="1" source="PtrrE2Xn4478rQurks_1-45" target="PtrrE2Xn4478rQurks_1-137">
          <mxGeometry width="50" height="50" relative="1" as="geometry">
            <mxPoint x="865" y="1606" as="sourcePoint" />
            <mxPoint x="1395" y="1500" as="targetPoint" />
          </mxGeometry>
        </mxCell>
        <mxCell id="PtrrE2Xn4478rQurks_1-139" value="" style="endArrow=none;html=1;rounded=0;entryX=0.75;entryY=1;entryDx=0;entryDy=0;exitX=0.5;exitY=0;exitDx=0;exitDy=0;" edge="1" parent="1" source="PtrrE2Xn4478rQurks_1-46" target="PtrrE2Xn4478rQurks_1-137">
          <mxGeometry width="50" height="50" relative="1" as="geometry">
            <mxPoint x="1345" y="1550" as="sourcePoint" />
            <mxPoint x="1395" y="1500" as="targetPoint" />
          </mxGeometry>
        </mxCell>
        <mxCell id="PtrrE2Xn4478rQurks_1-141" value="Antarctopelta" style="ellipse;whiteSpace=wrap;html=1;" vertex="1" parent="1">
          <mxGeometry x="1363" y="1474" width="120" height="80" as="geometry" />
        </mxCell>
        <mxCell id="PtrrE2Xn4478rQurks_1-142" value="Kunbarrasaurus" style="ellipse;whiteSpace=wrap;html=1;" vertex="1" parent="1">
          <mxGeometry x="1363" y="1420" width="120" height="80" as="geometry" />
        </mxCell>
        <mxCell id="PtrrE2Xn4478rQurks_1-143" value="Polacanthus" style="ellipse;whiteSpace=wrap;html=1;" vertex="1" parent="1">
          <mxGeometry x="288" y="1780" width="120" height="80" as="geometry" />
        </mxCell>
        <mxCell id="PtrrE2Xn4478rQurks_1-145" value="Polacanthinae" style="rounded=0;whiteSpace=wrap;html=1;" vertex="1" parent="1">
          <mxGeometry x="417" y="1770" width="120" height="60" as="geometry" />
        </mxCell>
        <mxCell id="PtrrE2Xn4478rQurks_1-146" value="" style="endArrow=none;html=1;rounded=0;entryX=0.25;entryY=1;entryDx=0;entryDy=0;exitX=0.5;exitY=0;exitDx=0;exitDy=0;" edge="1" parent="1" source="PtrrE2Xn4478rQurks_1-145" target="PtrrE2Xn4478rQurks_1-45">
          <mxGeometry width="50" height="50" relative="1" as="geometry">
            <mxPoint x="549" y="1730" as="sourcePoint" />
            <mxPoint x="749" y="1760" as="targetPoint" />
          </mxGeometry>
        </mxCell>
        <mxCell id="PtrrE2Xn4478rQurks_1-147" value="Nodosaurinae" style="rounded=0;whiteSpace=wrap;html=1;" vertex="1" parent="1">
          <mxGeometry x="582" y="1770" width="120" height="60" as="geometry" />
        </mxCell>
        <mxCell id="PtrrE2Xn4478rQurks_1-148" value="" style="endArrow=none;html=1;rounded=0;entryX=0.75;entryY=1;entryDx=0;entryDy=0;exitX=0.5;exitY=0;exitDx=0;exitDy=0;" edge="1" parent="1" source="PtrrE2Xn4478rQurks_1-147" target="PtrrE2Xn4478rQurks_1-45">
          <mxGeometry width="50" height="50" relative="1" as="geometry">
            <mxPoint x="719" y="1740" as="sourcePoint" />
            <mxPoint x="749" y="1760" as="targetPoint" />
          </mxGeometry>
        </mxCell>
        <mxCell id="PtrrE2Xn4478rQurks_1-150" value="Sauropelta" style="ellipse;whiteSpace=wrap;html=1;" vertex="1" parent="1">
          <mxGeometry x="711" y="1780" width="120" height="80" as="geometry" />
        </mxCell>
        <mxCell id="PtrrE2Xn4478rQurks_1-151" value="Eodromaeus" style="ellipse;whiteSpace=wrap;html=1;" vertex="1" parent="1">
          <mxGeometry x="5126" y="809" width="120" height="80" as="geometry" />
        </mxCell>
        <mxCell id="PtrrE2Xn4478rQurks_1-152" value="Sauropodomorpha" style="rounded=0;whiteSpace=wrap;html=1;" vertex="1" parent="1">
          <mxGeometry x="5590" y="959" width="120" height="60" as="geometry" />
        </mxCell>
        <mxCell id="PtrrE2Xn4478rQurks_1-153" value="Theropoda" style="rounded=0;whiteSpace=wrap;html=1;" vertex="1" parent="1">
          <mxGeometry x="4809" y="959" width="120" height="60" as="geometry" />
        </mxCell>
        <mxCell id="PtrrE2Xn4478rQurks_1-154" value="" style="endArrow=none;html=1;rounded=0;entryX=0.25;entryY=1;entryDx=0;entryDy=0;exitX=0.5;exitY=0;exitDx=0;exitDy=0;" edge="1" parent="1" source="PtrrE2Xn4478rQurks_1-153" target="PtrrE2Xn4478rQurks_1-17">
          <mxGeometry width="50" height="50" relative="1" as="geometry">
            <mxPoint x="4961" y="959" as="sourcePoint" />
            <mxPoint x="4911" y="1010" as="targetPoint" />
          </mxGeometry>
        </mxCell>
        <mxCell id="PtrrE2Xn4478rQurks_1-155" value="" style="endArrow=none;html=1;rounded=0;entryX=0.75;entryY=1;entryDx=0;entryDy=0;exitX=0.5;exitY=0;exitDx=0;exitDy=0;" edge="1" parent="1" source="PtrrE2Xn4478rQurks_1-152" target="PtrrE2Xn4478rQurks_1-17">
          <mxGeometry width="50" height="50" relative="1" as="geometry">
            <mxPoint x="4861" y="1060" as="sourcePoint" />
            <mxPoint x="4911" y="1010" as="targetPoint" />
          </mxGeometry>
        </mxCell>
        <mxCell id="PtrrE2Xn4478rQurks_1-156" value="Eoraptor" style="ellipse;whiteSpace=wrap;html=1;" vertex="1" parent="1">
          <mxGeometry x="5720" y="970" width="120" height="80" as="geometry" />
        </mxCell>
        <mxCell id="PtrrE2Xn4478rQurks_1-157" value="Herrasauridae" style="rounded=0;whiteSpace=wrap;html=1;" vertex="1" parent="1">
          <mxGeometry x="3879" y="939" width="120" height="60" as="geometry" />
        </mxCell>
        <mxCell id="PtrrE2Xn4478rQurks_1-158" value="" style="endArrow=none;html=1;rounded=0;entryX=0.25;entryY=1;entryDx=0;entryDy=0;exitX=0.5;exitY=0;exitDx=0;exitDy=0;" edge="1" parent="1" source="PtrrE2Xn4478rQurks_1-157" target="PtrrE2Xn4478rQurks_1-14">
          <mxGeometry width="50" height="50" relative="1" as="geometry">
            <mxPoint x="3919" y="1020" as="sourcePoint" />
            <mxPoint x="3969" y="970" as="targetPoint" />
          </mxGeometry>
        </mxCell>
        <mxCell id="PtrrE2Xn4478rQurks_1-159" value="Herrerasaurus" style="ellipse;whiteSpace=wrap;html=1;" vertex="1" parent="1">
          <mxGeometry x="3746" y="929" width="120" height="80" as="geometry" />
        </mxCell>
        <mxCell id="PtrrE2Xn4478rQurks_1-160" value="Chindesaurus" style="ellipse;whiteSpace=wrap;html=1;" vertex="1" parent="1">
          <mxGeometry x="3844" y="809" width="120" height="80" as="geometry" />
        </mxCell>
        <mxCell id="PtrrE2Xn4478rQurks_1-163" value="Buriolestes" style="ellipse;whiteSpace=wrap;html=1;" vertex="1" parent="1">
          <mxGeometry x="5720" y="910" width="120" height="80" as="geometry" />
        </mxCell>
        <mxCell id="PtrrE2Xn4478rQurks_1-166" value="Tawa" style="ellipse;whiteSpace=wrap;html=1;" vertex="1" parent="1">
          <mxGeometry x="4679" y="949" width="120" height="80" as="geometry" />
        </mxCell>
        <mxCell id="PtrrE2Xn4478rQurks_1-168" value="" style="endArrow=none;html=1;rounded=0;entryX=0.5;entryY=0;entryDx=0;entryDy=0;exitX=0.75;exitY=1;exitDx=0;exitDy=0;" edge="1" parent="1" source="PtrrE2Xn4478rQurks_1-40" target="PtrrE2Xn4478rQurks_1-169">
          <mxGeometry width="50" height="50" relative="1" as="geometry">
            <mxPoint x="2330" y="1900" as="sourcePoint" />
            <mxPoint x="2380" y="1850" as="targetPoint" />
          </mxGeometry>
        </mxCell>
        <mxCell id="PtrrE2Xn4478rQurks_1-169" value="Hypsilophodontidae" style="rounded=0;whiteSpace=wrap;html=1;" vertex="1" parent="1">
          <mxGeometry x="2047" y="1606" width="120" height="60" as="geometry" />
        </mxCell>
        <mxCell id="PtrrE2Xn4478rQurks_1-170" value="" style="endArrow=none;html=1;rounded=0;entryX=0.75;entryY=1;entryDx=0;entryDy=0;exitX=0.5;exitY=0;exitDx=0;exitDy=0;" edge="1" parent="1" source="PtrrE2Xn4478rQurks_1-173" target="PtrrE2Xn4478rQurks_1-69">
          <mxGeometry width="50" height="50" relative="1" as="geometry">
            <mxPoint x="1970" y="1740" as="sourcePoint" />
            <mxPoint x="2380" y="1850" as="targetPoint" />
          </mxGeometry>
        </mxCell>
        <mxCell id="PtrrE2Xn4478rQurks_1-171" value="Hypsilophodon" style="ellipse;whiteSpace=wrap;html=1;" vertex="1" parent="1">
          <mxGeometry x="2176" y="1617" width="120" height="80" as="geometry" />
        </mxCell>
        <mxCell id="PtrrE2Xn4478rQurks_1-172" value="Gideonmantellia" style="ellipse;whiteSpace=wrap;html=1;" vertex="1" parent="1">
          <mxGeometry x="2176" y="1568" width="120" height="80" as="geometry" />
        </mxCell>
        <mxCell id="PtrrE2Xn4478rQurks_1-173" value="Rhabdodontomorphs" style="rounded=0;whiteSpace=wrap;html=1;" vertex="1" parent="1">
          <mxGeometry x="1968.5" y="1769.5" width="120" height="60" as="geometry" />
        </mxCell>
        <mxCell id="PtrrE2Xn4478rQurks_1-174" value="Euiguanodontia" style="rounded=0;whiteSpace=wrap;html=1;" vertex="1" parent="1">
          <mxGeometry x="1526" y="1769.5" width="120" height="60" as="geometry" />
        </mxCell>
        <mxCell id="PtrrE2Xn4478rQurks_1-175" value="" style="endArrow=none;html=1;rounded=0;entryX=0.25;entryY=1;entryDx=0;entryDy=0;exitX=0.5;exitY=0;exitDx=0;exitDy=0;" edge="1" parent="1" source="PtrrE2Xn4478rQurks_1-174" target="PtrrE2Xn4478rQurks_1-69">
          <mxGeometry width="50" height="50" relative="1" as="geometry">
            <mxPoint x="2250" y="1860" as="sourcePoint" />
            <mxPoint x="2300" y="1810" as="targetPoint" />
          </mxGeometry>
        </mxCell>
        <mxCell id="PtrrE2Xn4478rQurks_1-176" value="" style="endArrow=none;html=1;rounded=0;entryX=0.75;entryY=1;entryDx=0;entryDy=0;exitX=0.5;exitY=0;exitDx=0;exitDy=0;" edge="1" parent="1" source="PtrrE2Xn4478rQurks_1-67" target="PtrrE2Xn4478rQurks_1-174">
          <mxGeometry width="50" height="50" relative="1" as="geometry">
            <mxPoint x="1770" y="1910" as="sourcePoint" />
            <mxPoint x="2300" y="1810" as="targetPoint" />
          </mxGeometry>
        </mxCell>
        <mxCell id="PtrrE2Xn4478rQurks_1-177" value="Dryomorpha" style="rounded=0;whiteSpace=wrap;html=1;" vertex="1" parent="1">
          <mxGeometry x="1353" y="1930" width="120" height="60" as="geometry" />
        </mxCell>
        <mxCell id="PtrrE2Xn4478rQurks_1-178" value="" style="endArrow=none;html=1;rounded=0;entryX=0.25;entryY=1;entryDx=0;entryDy=0;exitX=0.5;exitY=0;exitDx=0;exitDy=0;" edge="1" parent="1" source="PtrrE2Xn4478rQurks_1-177" target="PtrrE2Xn4478rQurks_1-174">
          <mxGeometry width="50" height="50" relative="1" as="geometry">
            <mxPoint x="2050" y="1860" as="sourcePoint" />
            <mxPoint x="2100" y="1810" as="targetPoint" />
          </mxGeometry>
        </mxCell>
        <mxCell id="PtrrE2Xn4478rQurks_1-179" value="Rhabdodon" style="ellipse;whiteSpace=wrap;html=1;" vertex="1" parent="1">
          <mxGeometry x="2245" y="1939.75" width="120" height="80" as="geometry" />
        </mxCell>
        <mxCell id="PtrrE2Xn4478rQurks_1-180" value="Zalmoxes" style="ellipse;whiteSpace=wrap;html=1;" vertex="1" parent="1">
          <mxGeometry x="2245" y="1886.75" width="120" height="80" as="geometry" />
        </mxCell>
        <mxCell id="PtrrE2Xn4478rQurks_1-181" value="Ankylopollexia" style="rounded=0;whiteSpace=wrap;html=1;" vertex="1" parent="1">
          <mxGeometry x="1244" y="2120" width="120" height="60" as="geometry" />
        </mxCell>
        <mxCell id="PtrrE2Xn4478rQurks_1-182" value="Dryosauridae" style="rounded=0;whiteSpace=wrap;html=1;" vertex="1" parent="1">
          <mxGeometry x="1510" y="2114" width="120" height="60" as="geometry" />
        </mxCell>
        <mxCell id="PtrrE2Xn4478rQurks_1-183" value="" style="endArrow=none;html=1;rounded=0;entryX=0.25;entryY=1;entryDx=0;entryDy=0;exitX=0.5;exitY=0;exitDx=0;exitDy=0;" edge="1" parent="1" source="PtrrE2Xn4478rQurks_1-181" target="PtrrE2Xn4478rQurks_1-177">
          <mxGeometry width="50" height="50" relative="1" as="geometry">
            <mxPoint x="1390" y="2040" as="sourcePoint" />
            <mxPoint x="1440" y="1990" as="targetPoint" />
          </mxGeometry>
        </mxCell>
        <mxCell id="PtrrE2Xn4478rQurks_1-184" value="" style="endArrow=none;html=1;rounded=0;entryX=0.75;entryY=1;entryDx=0;entryDy=0;exitX=0.5;exitY=0;exitDx=0;exitDy=0;" edge="1" parent="1" source="PtrrE2Xn4478rQurks_1-182" target="PtrrE2Xn4478rQurks_1-177">
          <mxGeometry width="50" height="50" relative="1" as="geometry">
            <mxPoint x="1390" y="2040" as="sourcePoint" />
            <mxPoint x="1440" y="1990" as="targetPoint" />
          </mxGeometry>
        </mxCell>
        <mxCell id="PtrrE2Xn4478rQurks_1-185" value="Tenontosaurus" style="ellipse;whiteSpace=wrap;html=1;" vertex="1" parent="1">
          <mxGeometry x="1842" y="1920" width="120" height="80" as="geometry" />
        </mxCell>
        <mxCell id="PtrrE2Xn4478rQurks_1-186" value="Dryosaurus" style="ellipse;whiteSpace=wrap;html=1;" vertex="1" parent="1">
          <mxGeometry x="1645" y="2130" width="120" height="80" as="geometry" />
        </mxCell>
        <mxCell id="PtrrE2Xn4478rQurks_1-187" value="Dysalotosaurus" style="ellipse;whiteSpace=wrap;html=1;" vertex="1" parent="1">
          <mxGeometry x="1645" y="2080" width="120" height="80" as="geometry" />
        </mxCell>
        <mxCell id="PtrrE2Xn4478rQurks_1-188" value="Zephyrosaurus" style="ellipse;whiteSpace=wrap;html=1;" vertex="1" parent="1">
          <mxGeometry x="3130.5" y="1417" width="120" height="80" as="geometry" />
        </mxCell>
        <mxCell id="PtrrE2Xn4478rQurks_1-190" value="Rhabdodontidae" style="rounded=0;whiteSpace=wrap;html=1;" vertex="1" parent="1">
          <mxGeometry x="2115" y="1930" width="120" height="60" as="geometry" />
        </mxCell>
        <mxCell id="PtrrE2Xn4478rQurks_1-191" value="" style="endArrow=none;html=1;rounded=0;entryX=0.75;entryY=1;entryDx=0;entryDy=0;exitX=0.5;exitY=0;exitDx=0;exitDy=0;" edge="1" parent="1" source="PtrrE2Xn4478rQurks_1-190" target="PtrrE2Xn4478rQurks_1-173">
          <mxGeometry width="50" height="50" relative="1" as="geometry">
            <mxPoint x="1712" y="1820" as="sourcePoint" />
            <mxPoint x="1762" y="1770" as="targetPoint" />
          </mxGeometry>
        </mxCell>
        <mxCell id="PtrrE2Xn4478rQurks_1-194" value="Tenontosauridae" style="rounded=0;whiteSpace=wrap;html=1;" vertex="1" parent="1">
          <mxGeometry x="1969" y="1930" width="120" height="60" as="geometry" />
        </mxCell>
        <mxCell id="PtrrE2Xn4478rQurks_1-195" value="" style="endArrow=none;html=1;rounded=0;entryX=0.25;entryY=1;entryDx=0;entryDy=0;exitX=0.5;exitY=0;exitDx=0;exitDy=0;" edge="1" parent="1" source="PtrrE2Xn4478rQurks_1-194" target="PtrrE2Xn4478rQurks_1-173">
          <mxGeometry width="50" height="50" relative="1" as="geometry">
            <mxPoint x="1712" y="1820" as="sourcePoint" />
            <mxPoint x="1762" y="1770" as="targetPoint" />
          </mxGeometry>
        </mxCell>
        <mxCell id="PtrrE2Xn4478rQurks_1-196" value="" style="endArrow=none;html=1;rounded=0;entryX=0.75;entryY=1;entryDx=0;entryDy=0;exitX=0.5;exitY=0;exitDx=0;exitDy=0;" edge="1" parent="1" source="PtrrE2Xn4478rQurks_1-199" target="PtrrE2Xn4478rQurks_1-181">
          <mxGeometry width="50" height="50" relative="1" as="geometry">
            <mxPoint x="1400" y="2250" as="sourcePoint" />
            <mxPoint x="2000" y="1860" as="targetPoint" />
          </mxGeometry>
        </mxCell>
        <mxCell id="PtrrE2Xn4478rQurks_1-197" value="Styracosterna" style="rounded=0;whiteSpace=wrap;html=1;" vertex="1" parent="1">
          <mxGeometry x="1100" y="2275" width="120" height="60" as="geometry" />
        </mxCell>
        <mxCell id="PtrrE2Xn4478rQurks_1-198" value="" style="endArrow=none;html=1;rounded=0;entryX=0.25;entryY=1;entryDx=0;entryDy=0;exitX=0.5;exitY=0;exitDx=0;exitDy=0;" edge="1" parent="1" source="PtrrE2Xn4478rQurks_1-197" target="PtrrE2Xn4478rQurks_1-181">
          <mxGeometry width="50" height="50" relative="1" as="geometry">
            <mxPoint x="1950" y="1910" as="sourcePoint" />
            <mxPoint x="2000" y="1860" as="targetPoint" />
          </mxGeometry>
        </mxCell>
        <mxCell id="PtrrE2Xn4478rQurks_1-199" value="Camptosauridae" style="rounded=0;whiteSpace=wrap;html=1;" vertex="1" parent="1">
          <mxGeometry x="1373" y="2265" width="120" height="60" as="geometry" />
        </mxCell>
        <mxCell id="PtrrE2Xn4478rQurks_1-200" value="Camptosaurus" style="ellipse;whiteSpace=wrap;html=1;" vertex="1" parent="1">
          <mxGeometry x="1510" y="2255" width="120" height="80" as="geometry" />
        </mxCell>
        <mxCell id="PtrrE2Xn4478rQurks_1-201" value="Hadrosauriformes" style="rounded=0;whiteSpace=wrap;html=1;" vertex="1" parent="1">
          <mxGeometry x="977" y="2424.5" width="120" height="60" as="geometry" />
        </mxCell>
        <mxCell id="PtrrE2Xn4478rQurks_1-202" value="" style="endArrow=none;html=1;rounded=0;entryX=0.5;entryY=1;entryDx=0;entryDy=0;exitX=0.5;exitY=0;exitDx=0;exitDy=0;" edge="1" parent="1" source="PtrrE2Xn4478rQurks_1-201" target="PtrrE2Xn4478rQurks_1-197">
          <mxGeometry width="50" height="50" relative="1" as="geometry">
            <mxPoint x="1410" y="2370" as="sourcePoint" />
            <mxPoint x="1460" y="2320" as="targetPoint" />
          </mxGeometry>
        </mxCell>
        <mxCell id="PtrrE2Xn4478rQurks_1-203" value="Uteodon" style="ellipse;whiteSpace=wrap;html=1;" vertex="1" parent="1">
          <mxGeometry x="960" y="2265" width="120" height="80" as="geometry" />
        </mxCell>
        <mxCell id="PtrrE2Xn4478rQurks_1-204" value="Hadrosauridea" style="rounded=0;whiteSpace=wrap;html=1;" vertex="1" parent="1">
          <mxGeometry x="800" y="2569.5" width="120" height="60" as="geometry" />
        </mxCell>
        <mxCell id="PtrrE2Xn4478rQurks_1-205" value="Hadrosauromorpha" style="rounded=0;whiteSpace=wrap;html=1;" vertex="1" parent="1">
          <mxGeometry x="640" y="2720" width="120" height="60" as="geometry" />
        </mxCell>
        <mxCell id="PtrrE2Xn4478rQurks_1-206" value="Iguanodontidae" style="rounded=0;whiteSpace=wrap;html=1;" vertex="1" parent="1">
          <mxGeometry x="1120" y="2569.5" width="120" height="60" as="geometry" />
        </mxCell>
        <mxCell id="PtrrE2Xn4478rQurks_1-207" value="" style="endArrow=none;html=1;rounded=0;entryX=0.75;entryY=1;entryDx=0;entryDy=0;exitX=0.5;exitY=0;exitDx=0;exitDy=0;" edge="1" parent="1" source="PtrrE2Xn4478rQurks_1-206" target="PtrrE2Xn4478rQurks_1-201">
          <mxGeometry width="50" height="50" relative="1" as="geometry">
            <mxPoint x="1020" y="2470" as="sourcePoint" />
            <mxPoint x="1070" y="2420" as="targetPoint" />
          </mxGeometry>
        </mxCell>
        <mxCell id="PtrrE2Xn4478rQurks_1-208" value="" style="endArrow=none;html=1;rounded=0;entryX=0.25;entryY=1;entryDx=0;entryDy=0;exitX=0.5;exitY=0;exitDx=0;exitDy=0;" edge="1" parent="1" source="PtrrE2Xn4478rQurks_1-204" target="PtrrE2Xn4478rQurks_1-201">
          <mxGeometry width="50" height="50" relative="1" as="geometry">
            <mxPoint x="1020" y="2470" as="sourcePoint" />
            <mxPoint x="1070" y="2420" as="targetPoint" />
          </mxGeometry>
        </mxCell>
        <mxCell id="PtrrE2Xn4478rQurks_1-209" value="" style="endArrow=none;html=1;rounded=0;exitX=0.25;exitY=1;exitDx=0;exitDy=0;entryX=0.5;entryY=0;entryDx=0;entryDy=0;" edge="1" parent="1" source="PtrrE2Xn4478rQurks_1-204" target="PtrrE2Xn4478rQurks_1-205">
          <mxGeometry width="50" height="50" relative="1" as="geometry">
            <mxPoint x="1100" y="2590" as="sourcePoint" />
            <mxPoint x="1150" y="2540" as="targetPoint" />
          </mxGeometry>
        </mxCell>
        <mxCell id="PtrrE2Xn4478rQurks_1-211" value="Iguanodon" style="ellipse;whiteSpace=wrap;html=1;" vertex="1" parent="1">
          <mxGeometry x="1251" y="2576.5" width="120" height="80" as="geometry" />
        </mxCell>
        <mxCell id="PtrrE2Xn4478rQurks_1-212" value="Mantellisaurus" style="ellipse;whiteSpace=wrap;html=1;" vertex="1" parent="1">
          <mxGeometry x="1251" y="2526.5" width="120" height="80" as="geometry" />
        </mxCell>
        <mxCell id="PtrrE2Xn4478rQurks_1-213" value="Proa" style="ellipse;whiteSpace=wrap;html=1;" vertex="1" parent="1">
          <mxGeometry x="670" y="2566.5" width="120" height="80" as="geometry" />
        </mxCell>
        <mxCell id="PtrrE2Xn4478rQurks_1-214" value="Bactrosaurus" style="ellipse;whiteSpace=wrap;html=1;" vertex="1" parent="1">
          <mxGeometry x="510" y="2710" width="120" height="80" as="geometry" />
        </mxCell>
        <mxCell id="PtrrE2Xn4478rQurks_1-215" value="Bolong" style="ellipse;whiteSpace=wrap;html=1;" vertex="1" parent="1">
          <mxGeometry x="670" y="2512" width="120" height="80" as="geometry" />
        </mxCell>
        <mxCell id="PtrrE2Xn4478rQurks_1-216" value="" style="endArrow=none;html=1;rounded=0;entryX=0.25;entryY=1;entryDx=0;entryDy=0;exitX=0.5;exitY=0;exitDx=0;exitDy=0;" edge="1" parent="1" source="PtrrE2Xn4478rQurks_1-217" target="PtrrE2Xn4478rQurks_1-205">
          <mxGeometry width="50" height="50" relative="1" as="geometry">
            <mxPoint x="560" y="2860" as="sourcePoint" />
            <mxPoint x="850" y="2770" as="targetPoint" />
          </mxGeometry>
        </mxCell>
        <mxCell id="PtrrE2Xn4478rQurks_1-217" value="Hadrosauridae" style="rounded=0;whiteSpace=wrap;html=1;" vertex="1" parent="1">
          <mxGeometry x="470" y="2860" width="120" height="60" as="geometry" />
        </mxCell>
        <mxCell id="PtrrE2Xn4478rQurks_1-218" value="Hadrosaurus" style="ellipse;whiteSpace=wrap;html=1;" vertex="1" parent="1">
          <mxGeometry x="340" y="2850" width="120" height="80" as="geometry" />
        </mxCell>
        <mxCell id="PtrrE2Xn4478rQurks_1-219" value="" style="endArrow=none;html=1;rounded=0;entryX=0.25;entryY=1;entryDx=0;entryDy=0;exitX=0.5;exitY=0;exitDx=0;exitDy=0;" edge="1" parent="1" source="PtrrE2Xn4478rQurks_1-220" target="PtrrE2Xn4478rQurks_1-217">
          <mxGeometry width="50" height="50" relative="1" as="geometry">
            <mxPoint x="410" y="3000" as="sourcePoint" />
            <mxPoint x="900" y="2820" as="targetPoint" />
          </mxGeometry>
        </mxCell>
        <mxCell id="PtrrE2Xn4478rQurks_1-220" value="Saurolophinae" style="rounded=0;whiteSpace=wrap;html=1;" vertex="1" parent="1">
          <mxGeometry x="220" y="2980" width="120" height="60" as="geometry" />
        </mxCell>
        <mxCell id="PtrrE2Xn4478rQurks_1-221" value="Lambeosaurinae" style="rounded=0;whiteSpace=wrap;html=1;" vertex="1" parent="1">
          <mxGeometry x="902" y="2980" width="120" height="60" as="geometry" />
        </mxCell>
        <mxCell id="PtrrE2Xn4478rQurks_1-222" value="" style="endArrow=none;html=1;rounded=0;exitX=0.75;exitY=1;exitDx=0;exitDy=0;entryX=0.5;entryY=0;entryDx=0;entryDy=0;" edge="1" parent="1" source="PtrrE2Xn4478rQurks_1-217" target="PtrrE2Xn4478rQurks_1-221">
          <mxGeometry width="50" height="50" relative="1" as="geometry">
            <mxPoint x="850" y="2870" as="sourcePoint" />
            <mxPoint x="680" y="2980" as="targetPoint" />
          </mxGeometry>
        </mxCell>
        <mxCell id="PtrrE2Xn4478rQurks_1-223" value="Saurolopini" style="rounded=0;whiteSpace=wrap;html=1;" vertex="1" parent="1">
          <mxGeometry x="130" y="3120" width="120" height="60" as="geometry" />
        </mxCell>
        <mxCell id="PtrrE2Xn4478rQurks_1-224" value="Wulagasaurus" style="ellipse;whiteSpace=wrap;html=1;" vertex="1" parent="1">
          <mxGeometry x="90" y="2970" width="120" height="80" as="geometry" />
        </mxCell>
        <mxCell id="PtrrE2Xn4478rQurks_1-225" value="" style="endArrow=none;html=1;rounded=0;exitX=0.25;exitY=1;exitDx=0;exitDy=0;entryX=0.5;entryY=0;entryDx=0;entryDy=0;" edge="1" parent="1" source="PtrrE2Xn4478rQurks_1-220" target="PtrrE2Xn4478rQurks_1-223">
          <mxGeometry width="50" height="50" relative="1" as="geometry">
            <mxPoint x="680" y="2820" as="sourcePoint" />
            <mxPoint x="180" y="3120" as="targetPoint" />
          </mxGeometry>
        </mxCell>
        <mxCell id="PtrrE2Xn4478rQurks_1-226" value="Saurolophus" style="ellipse;whiteSpace=wrap;html=1;" vertex="1" parent="1">
          <mxGeometry y="3096" width="120" height="80" as="geometry" />
        </mxCell>
        <mxCell id="PtrrE2Xn4478rQurks_1-227" value="Augusynolophus" style="ellipse;whiteSpace=wrap;html=1;" vertex="1" parent="1">
          <mxGeometry y="3151" width="120" height="80" as="geometry" />
        </mxCell>
        <mxCell id="PtrrE2Xn4478rQurks_1-230" value="" style="endArrow=none;html=1;rounded=0;exitX=0.75;exitY=1;exitDx=0;exitDy=0;entryX=0.5;entryY=0;entryDx=0;entryDy=0;" edge="1" parent="1" source="PtrrE2Xn4478rQurks_1-220" target="PtrrE2Xn4478rQurks_1-231">
          <mxGeometry width="50" height="50" relative="1" as="geometry">
            <mxPoint x="680" y="2820" as="sourcePoint" />
            <mxPoint x="480" y="3100" as="targetPoint" />
          </mxGeometry>
        </mxCell>
        <mxCell id="PtrrE2Xn4478rQurks_1-231" value="Edmontosaurini" style="rounded=0;whiteSpace=wrap;html=1;" vertex="1" parent="1">
          <mxGeometry x="340" y="3120" width="120" height="60" as="geometry" />
        </mxCell>
        <mxCell id="PtrrE2Xn4478rQurks_1-232" value="Edmontosaurus" style="ellipse;whiteSpace=wrap;html=1;" vertex="1" parent="1">
          <mxGeometry x="470" y="3148" width="120" height="80" as="geometry" />
        </mxCell>
        <mxCell id="PtrrE2Xn4478rQurks_1-233" value="Shantungosaurus" style="ellipse;whiteSpace=wrap;html=1;" vertex="1" parent="1">
          <mxGeometry x="470" y="3090" width="120" height="80" as="geometry" />
        </mxCell>
        <mxCell id="PtrrE2Xn4478rQurks_1-235" value="Parasaurolophini" style="rounded=0;whiteSpace=wrap;html=1;" vertex="1" parent="1">
          <mxGeometry x="804" y="3109.5" width="120" height="60" as="geometry" />
        </mxCell>
        <mxCell id="PtrrE2Xn4478rQurks_1-236" value="Parasaurolophus" style="ellipse;whiteSpace=wrap;html=1;" vertex="1" parent="1">
          <mxGeometry x="672" y="3142.75" width="120" height="80" as="geometry" />
        </mxCell>
        <mxCell id="PtrrE2Xn4478rQurks_1-237" value="Charonosaurus" style="ellipse;whiteSpace=wrap;html=1;" vertex="1" parent="1">
          <mxGeometry x="673" y="3088.25" width="120" height="80" as="geometry" />
        </mxCell>
        <mxCell id="PtrrE2Xn4478rQurks_1-238" value="Lambeosaurini" style="rounded=0;whiteSpace=wrap;html=1;" vertex="1" parent="1">
          <mxGeometry x="1014" y="3109.5" width="120" height="60" as="geometry" />
        </mxCell>
        <mxCell id="PtrrE2Xn4478rQurks_1-239" value="Olorotitan" style="ellipse;whiteSpace=wrap;html=1;" vertex="1" parent="1">
          <mxGeometry x="1144" y="3137.5" width="120" height="80" as="geometry" />
        </mxCell>
        <mxCell id="PtrrE2Xn4478rQurks_1-240" value="Lambeosaurus" style="ellipse;whiteSpace=wrap;html=1;" vertex="1" parent="1">
          <mxGeometry x="1144" y="3079.5" width="120" height="80" as="geometry" />
        </mxCell>
        <mxCell id="PtrrE2Xn4478rQurks_1-241" value="" style="endArrow=none;html=1;rounded=0;entryX=0.25;entryY=1;entryDx=0;entryDy=0;exitX=0.5;exitY=0;exitDx=0;exitDy=0;" edge="1" parent="1" source="PtrrE2Xn4478rQurks_1-235" target="PtrrE2Xn4478rQurks_1-221">
          <mxGeometry width="50" height="50" relative="1" as="geometry">
            <mxPoint x="680" y="2820" as="sourcePoint" />
            <mxPoint x="730" y="2770" as="targetPoint" />
          </mxGeometry>
        </mxCell>
        <mxCell id="PtrrE2Xn4478rQurks_1-242" value="" style="endArrow=none;html=1;rounded=0;entryX=0.75;entryY=1;entryDx=0;entryDy=0;exitX=0.5;exitY=0;exitDx=0;exitDy=0;" edge="1" parent="1" source="PtrrE2Xn4478rQurks_1-238" target="PtrrE2Xn4478rQurks_1-221">
          <mxGeometry width="50" height="50" relative="1" as="geometry">
            <mxPoint x="680" y="2820" as="sourcePoint" />
            <mxPoint x="730" y="2770" as="targetPoint" />
          </mxGeometry>
        </mxCell>
        <mxCell id="PtrrE2Xn4478rQurks_1-243" value="" style="endArrow=none;html=1;rounded=0;entryX=0.25;entryY=1;entryDx=0;entryDy=0;exitX=0.5;exitY=0;exitDx=0;exitDy=0;" edge="1" parent="1" source="PtrrE2Xn4478rQurks_1-244" target="PtrrE2Xn4478rQurks_1-46">
          <mxGeometry width="50" height="50" relative="1" as="geometry">
            <mxPoint x="1068" y="1770" as="sourcePoint" />
            <mxPoint x="898" y="1710" as="targetPoint" />
          </mxGeometry>
        </mxCell>
        <mxCell id="PtrrE2Xn4478rQurks_1-244" value="Shamosaurinae" style="rounded=0;whiteSpace=wrap;html=1;" vertex="1" parent="1">
          <mxGeometry x="995" y="1769.5" width="120" height="60" as="geometry" />
        </mxCell>
        <mxCell id="PtrrE2Xn4478rQurks_1-245" value="Shamosaurus" style="ellipse;whiteSpace=wrap;html=1;" vertex="1" parent="1">
          <mxGeometry x="870" y="1760" width="120" height="80" as="geometry" />
        </mxCell>
        <mxCell id="PtrrE2Xn4478rQurks_1-246" value="Panoplosaurini" style="rounded=0;whiteSpace=wrap;html=1;" vertex="1" parent="1">
          <mxGeometry x="500" y="1930" width="120" height="60" as="geometry" />
        </mxCell>
        <mxCell id="PtrrE2Xn4478rQurks_1-247" value="" style="endArrow=none;html=1;rounded=0;exitX=0.5;exitY=0;exitDx=0;exitDy=0;entryX=0.25;entryY=1;entryDx=0;entryDy=0;" edge="1" parent="1" source="PtrrE2Xn4478rQurks_1-246" target="PtrrE2Xn4478rQurks_1-147">
          <mxGeometry width="50" height="50" relative="1" as="geometry">
            <mxPoint x="880" y="1880" as="sourcePoint" />
            <mxPoint x="930" y="1830" as="targetPoint" />
          </mxGeometry>
        </mxCell>
        <mxCell id="PtrrE2Xn4478rQurks_1-248" value="" style="endArrow=none;html=1;rounded=0;entryX=0.75;entryY=1;entryDx=0;entryDy=0;exitX=0.5;exitY=0;exitDx=0;exitDy=0;" edge="1" parent="1" source="PtrrE2Xn4478rQurks_1-249" target="PtrrE2Xn4478rQurks_1-147">
          <mxGeometry width="50" height="50" relative="1" as="geometry">
            <mxPoint x="720" y="1920" as="sourcePoint" />
            <mxPoint x="930" y="1830" as="targetPoint" />
          </mxGeometry>
        </mxCell>
        <mxCell id="PtrrE2Xn4478rQurks_1-249" value="Struthiosaurini" style="rounded=0;whiteSpace=wrap;html=1;" vertex="1" parent="1">
          <mxGeometry x="660" y="1930" width="120" height="60" as="geometry" />
        </mxCell>
        <mxCell id="PtrrE2Xn4478rQurks_1-250" value="Panoplosaurus" style="ellipse;whiteSpace=wrap;html=1;" vertex="1" parent="1">
          <mxGeometry x="370" y="1920" width="120" height="80" as="geometry" />
        </mxCell>
        <mxCell id="PtrrE2Xn4478rQurks_1-251" value="Struthiosaurus" style="ellipse;whiteSpace=wrap;html=1;" vertex="1" parent="1">
          <mxGeometry x="793" y="1920" width="120" height="80" as="geometry" />
        </mxCell>
        <mxCell id="PtrrE2Xn4478rQurks_1-252" value="Gastonia" style="ellipse;whiteSpace=wrap;html=1;" vertex="1" parent="1">
          <mxGeometry x="288" y="1730" width="120" height="80" as="geometry" />
        </mxCell>
        <mxCell id="PtrrE2Xn4478rQurks_1-253" value="Nodosaurus" style="ellipse;whiteSpace=wrap;html=1;" vertex="1" parent="1">
          <mxGeometry x="711" y="1730" width="120" height="80" as="geometry" />
        </mxCell>
        <mxCell id="PtrrE2Xn4478rQurks_1-254" value="Euoplocephalus" style="ellipse;whiteSpace=wrap;html=1;" vertex="1" parent="1">
          <mxGeometry x="1297" y="1730" width="120" height="80" as="geometry" />
        </mxCell>
        <mxCell id="PtrrE2Xn4478rQurks_1-255" value="Neotheropoda" style="rounded=0;whiteSpace=wrap;html=1;" vertex="1" parent="1">
          <mxGeometry x="4621" y="1117" width="120" height="60" as="geometry" />
        </mxCell>
        <mxCell id="PtrrE2Xn4478rQurks_1-256" value="" style="endArrow=none;html=1;rounded=0;entryX=0.25;entryY=1;entryDx=0;entryDy=0;exitX=0.5;exitY=0;exitDx=0;exitDy=0;" edge="1" parent="1" source="PtrrE2Xn4478rQurks_1-255" target="PtrrE2Xn4478rQurks_1-153">
          <mxGeometry width="50" height="50" relative="1" as="geometry">
            <mxPoint x="4595" y="1330" as="sourcePoint" />
            <mxPoint x="4645" y="1280" as="targetPoint" />
          </mxGeometry>
        </mxCell>
        <mxCell id="PtrrE2Xn4478rQurks_1-257" value="Coelophysidae" style="rounded=0;whiteSpace=wrap;html=1;" vertex="1" parent="1">
          <mxGeometry x="4970" y="1116" width="120" height="60" as="geometry" />
        </mxCell>
        <mxCell id="PtrrE2Xn4478rQurks_1-258" value="" style="endArrow=none;html=1;rounded=0;entryX=0.75;entryY=1;entryDx=0;entryDy=0;exitX=0.5;exitY=0;exitDx=0;exitDy=0;" edge="1" parent="1" source="PtrrE2Xn4478rQurks_1-257" target="PtrrE2Xn4478rQurks_1-153">
          <mxGeometry width="50" height="50" relative="1" as="geometry">
            <mxPoint x="4655" y="1090" as="sourcePoint" />
            <mxPoint x="4705" y="1040" as="targetPoint" />
          </mxGeometry>
        </mxCell>
        <mxCell id="PtrrE2Xn4478rQurks_1-259" value="Coelophysis" style="ellipse;whiteSpace=wrap;html=1;" vertex="1" parent="1">
          <mxGeometry x="5099" y="1070" width="120" height="80" as="geometry" />
        </mxCell>
        <mxCell id="PtrrE2Xn4478rQurks_1-260" value="Procompsognathus" style="ellipse;whiteSpace=wrap;html=1;" vertex="1" parent="1">
          <mxGeometry x="5099" y="1122" width="120" height="80" as="geometry" />
        </mxCell>
        <mxCell id="PtrrE2Xn4478rQurks_1-261" value="" style="endArrow=none;html=1;rounded=0;entryX=0.25;entryY=1;entryDx=0;entryDy=0;exitX=0.5;exitY=0;exitDx=0;exitDy=0;" edge="1" parent="1" source="PtrrE2Xn4478rQurks_1-262" target="PtrrE2Xn4478rQurks_1-255">
          <mxGeometry width="50" height="50" relative="1" as="geometry">
            <mxPoint x="4571" y="1260" as="sourcePoint" />
            <mxPoint x="4731" y="1270" as="targetPoint" />
          </mxGeometry>
        </mxCell>
        <mxCell id="PtrrE2Xn4478rQurks_1-262" value="Averostra" style="rounded=0;whiteSpace=wrap;html=1;" vertex="1" parent="1">
          <mxGeometry x="4511" y="1257" width="120" height="60" as="geometry" />
        </mxCell>
        <mxCell id="PtrrE2Xn4478rQurks_1-263" value="" style="endArrow=none;html=1;rounded=0;entryX=0.75;entryY=1;entryDx=0;entryDy=0;exitX=0.5;exitY=0;exitDx=0;exitDy=0;" edge="1" parent="1" source="PtrrE2Xn4478rQurks_1-264" target="PtrrE2Xn4478rQurks_1-255">
          <mxGeometry width="50" height="50" relative="1" as="geometry">
            <mxPoint x="4776" y="1250" as="sourcePoint" />
            <mxPoint x="4656" y="1250" as="targetPoint" />
          </mxGeometry>
        </mxCell>
        <mxCell id="PtrrE2Xn4478rQurks_1-264" value="Dilophosauridae" style="rounded=0;whiteSpace=wrap;html=1;" vertex="1" parent="1">
          <mxGeometry x="4759" y="1257" width="120" height="60" as="geometry" />
        </mxCell>
        <mxCell id="PtrrE2Xn4478rQurks_1-265" value="Dilophosaurus" style="ellipse;whiteSpace=wrap;html=1;" vertex="1" parent="1">
          <mxGeometry x="4889" y="1219.5" width="120" height="80" as="geometry" />
        </mxCell>
        <mxCell id="PtrrE2Xn4478rQurks_1-266" value="Dracovenator" style="ellipse;whiteSpace=wrap;html=1;" vertex="1" parent="1">
          <mxGeometry x="4889" y="1274.5" width="120" height="80" as="geometry" />
        </mxCell>
        <mxCell id="PtrrE2Xn4478rQurks_1-267" value="Tetanurae" style="rounded=0;whiteSpace=wrap;html=1;" vertex="1" parent="1">
          <mxGeometry x="4357" y="1430" width="120" height="60" as="geometry" />
        </mxCell>
        <mxCell id="PtrrE2Xn4478rQurks_1-268" value="Ceratosauria" style="rounded=0;whiteSpace=wrap;html=1;" vertex="1" parent="1">
          <mxGeometry x="4696" y="1430" width="120" height="60" as="geometry" />
        </mxCell>
        <mxCell id="PtrrE2Xn4478rQurks_1-269" value="" style="endArrow=none;html=1;rounded=0;entryX=0.25;entryY=1;entryDx=0;entryDy=0;exitX=0.5;exitY=0;exitDx=0;exitDy=0;" edge="1" parent="1" source="PtrrE2Xn4478rQurks_1-267" target="PtrrE2Xn4478rQurks_1-262">
          <mxGeometry width="50" height="50" relative="1" as="geometry">
            <mxPoint x="5066" y="1410" as="sourcePoint" />
            <mxPoint x="5116" y="1360" as="targetPoint" />
          </mxGeometry>
        </mxCell>
        <mxCell id="PtrrE2Xn4478rQurks_1-270" value="" style="endArrow=none;html=1;rounded=0;entryX=0.75;entryY=1;entryDx=0;entryDy=0;exitX=0.5;exitY=0;exitDx=0;exitDy=0;" edge="1" parent="1" source="PtrrE2Xn4478rQurks_1-268" target="PtrrE2Xn4478rQurks_1-262">
          <mxGeometry width="50" height="50" relative="1" as="geometry">
            <mxPoint x="5066" y="1410" as="sourcePoint" />
            <mxPoint x="5116" y="1360" as="targetPoint" />
          </mxGeometry>
        </mxCell>
        <UserObject label="Carnosauria" id="PtrrE2Xn4478rQurks_1-271">
          <mxCell style="rounded=0;whiteSpace=wrap;html=1;" vertex="1" parent="1">
            <mxGeometry x="4502" y="1578" width="120" height="60" as="geometry" />
          </mxCell>
        </UserObject>
        <mxCell id="PtrrE2Xn4478rQurks_1-272" value="Coelurosauria" style="rounded=0;whiteSpace=wrap;html=1;" vertex="1" parent="1">
          <mxGeometry x="4237" y="1578" width="120" height="60" as="geometry" />
        </mxCell>
        <mxCell id="PtrrE2Xn4478rQurks_1-273" value="" style="endArrow=none;html=1;rounded=0;entryX=0.25;entryY=1;entryDx=0;entryDy=0;exitX=0.5;exitY=0;exitDx=0;exitDy=0;" edge="1" parent="1" source="PtrrE2Xn4478rQurks_1-272" target="PtrrE2Xn4478rQurks_1-267">
          <mxGeometry width="50" height="50" relative="1" as="geometry">
            <mxPoint x="4252" y="1710" as="sourcePoint" />
            <mxPoint x="4302" y="1660" as="targetPoint" />
          </mxGeometry>
        </mxCell>
        <mxCell id="PtrrE2Xn4478rQurks_1-274" value="" style="endArrow=none;html=1;rounded=0;entryX=0.75;entryY=1;entryDx=0;entryDy=0;exitX=0.5;exitY=0;exitDx=0;exitDy=0;" edge="1" parent="1" source="PtrrE2Xn4478rQurks_1-271" target="PtrrE2Xn4478rQurks_1-267">
          <mxGeometry width="50" height="50" relative="1" as="geometry">
            <mxPoint x="4252" y="1710" as="sourcePoint" />
            <mxPoint x="4302" y="1660" as="targetPoint" />
          </mxGeometry>
        </mxCell>
      </root>
    </mxGraphModel>
  </diagram>
</mxfile>
